<svg class="size-full" fill="#000000" width="800px" height="800px" viewBox="0 0 100 100" enable-background="new 0 0 100 100" id="Layer_1" version="1.1" xml:space="preserve">

<g>

<path d="M74.2,23l-4.9,4.9c-1.4-0.9-3-1.3-4.7-1.3c-2.4,0-4.6,0.9-6.3,2.6L33.7,53.8c-3,3-3.4,7.5-1.2,11l-3.2,3.2l-3.4-3.4   L23,67.3l9.7,9.7l2.8-2.8l-3.4-3.4l3.2-3.2c1.4,0.9,3,1.3,4.7,1.3c2.4,0,4.6-0.9,6.3-2.6l24.6-24.6c3-3,3.4-7.5,1.2-11l4.9-4.9   L74.2,23z M68,38.9L43.4,63.5c-0.9,0.9-2.1,1.4-3.4,1.4s-2.5-0.5-3.4-1.4c-0.9-0.9-1.4-2.1-1.4-3.4s0.5-2.5,1.4-3.4l7-7l2.8,2.8   l2.8-2.8l-2.8-2.8l1.3-1.3l2.8,2.8l2.8-2.8l-2.8-2.8l1.3-1.3l2.8,2.8l2.8-2.8l-2.8-2.8l1.3-1.3l2.8,2.8l2.8-2.8l-2.8-2.8l2.4-2.4   c0.9-0.9,2.1-1.4,3.4-1.4s2.5,0.5,3.4,1.4c0.9,0.9,1.4,2.1,1.4,3.4S68.9,38,68,38.9z"/>

</g>

</svg>