<svg class="size-full" fill="#000000" width="800px" height="800px" viewBox="0 0 100 100" enable-background="new 0 0 100 100" id="Layer_1" version="1.1" xml:space="preserve">

<g>

<path d="M64.5,21c-0.4,0-0.9,0-1.3,0c-4.9,0-9.7,1.9-13.2,5.2c-3.5-3.4-8.3-5.2-13.2-5.2c-0.5,0-0.9,0-1.3,0   c-4.6,0.3-8.8,2.5-11.6,6.1c-3,3.8-4.3,8.7-3.5,13.5l3.9-0.6c-0.6-3.7,0.4-7.5,2.7-10.4c2.2-2.7,5.3-4.4,8.8-4.6c0.4,0,0.7,0,1.1,0   c4.5,0,8.8,2,11.7,5.4l1.5,1.8l1.5-1.8c2.9-3.5,7.2-5.4,11.7-5.4c0.4,0,0.7,0,1,0c4.7,0.3,8.6,3.1,10.5,7.5c2,4.6,1.3,9.8-1.8,13.6   l-23,28.2L39.1,61.2L36,63.7L47.8,78c0.5,0.7,1.3,1,2.2,1c0,0,0,0,0,0c0.8,0,1.6-0.4,2.2-1l24-29.4c4.1-5,5-11.8,2.4-17.7   C75.9,25.1,70.7,21.4,64.5,21z"/>

<path d="M40.3,58.3C40.3,58.3,40.3,58.3,40.3,58.3c0.9,0,1.7-0.5,2-1.3l2.7-7.8l1.5,3.4c0.3,0.7,1,1.2,1.8,1.2h9.6v-4h-8.3l-3-6.9   c-0.3-0.8-1-1.2-1.9-1.2c-0.8,0-1.5,0.6-1.8,1.3l-2.3,6.6l-3-10.8c-0.2-0.8-1-1.4-1.8-1.5c-0.9-0.1-1.6,0.5-2,1.2l-4.5,11.1h-7.2v4   h8.6c0.8,0,1.5-0.5,1.9-1.2l2.8-6.9l3.1,11.3C38.6,57.7,39.4,58.3,40.3,58.3z"/>

</g>

</svg>