<svg class="size-full" fill="#000000" width="800px" height="800px" viewBox="0 0 100 100" enable-background="new 0 0 100 100" id="Layer_1" version="1.1" xml:space="preserve">

<g>

<path d="M83.3,48.3h-20V22.5c0-1.4-1.1-2.5-2.5-2.5H39.3c-1.4,0-2.5,1.1-2.5,2.5v25.8h-20c-1.4,0-2.5,1.1-2.5,2.5v26.7   c0,1.4,1.1,2.5,2.5,2.5h21.5c0.2,0,0.3,0,0.5-0.1c0.2,0,0.3,0.1,0.5,0.1h21.5c0.2,0,0.3,0,0.5-0.1c0.2,0,0.3,0.1,0.5,0.1h21.5   c1.4,0,2.5-1.1,2.5-2.5V50.8C85.8,49.4,84.6,48.3,83.3,48.3z M18.3,52.3h18.5V76H18.3V52.3z M40.8,50.8V24h18.5v26.8V76H40.8V50.8z    M81.8,76H63.3V52.3h18.5V76z"/>

<polygon points="52,27.7 48,27.7 48,30.9 44.8,30.9 44.8,34.9 48,34.9 48,38.1 52,38.1 52,34.9 55.2,34.9 55.2,30.9 52,30.9  "/>

<rect height="4" width="10.5" x="44.8" y="48"/>

<rect height="4" width="10.5" x="44.8" y="55.6"/>

<rect height="4" width="10.5" x="44.8" y="63.3"/>

<rect height="4" width="10.5" x="22.3" y="55.6"/>

<rect height="4" width="10.5" x="22.3" y="63.3"/>

<rect height="4" width="10.5" x="67.3" y="55.6"/>

<rect height="4" width="10.5" x="67.3" y="63.3"/>

</g>

</svg>